<svg width="18" height="20" viewBox="0 0 18 20" fill="none" xmlns="http://www.w3.org/2000/svg">
<path d="M17.5713 13.2006L15.7045 10.312V7.33348C15.7045 4.40805 13.5136 1.98274 10.6802 1.6036C10.6402 0.712547 9.90154 0 8.99704 0C8.09254 0 7.35385 0.712547 7.31388 1.6036C4.48196 1.98421 2.29103 4.40805 2.29103 7.33348V10.312L0.425784 13.2006C-0.105663 14.0223 -0.141192 15.0254 0.328081 15.8826C0.797353 16.7397 1.66336 17.2531 2.64484 17.2531H5.09482C5.66772 18.8803 7.21025 20 9 20C10.7897 20 12.3308 18.8803 12.9052 17.2531H15.3552C16.3352 17.2531 17.2012 16.7412 17.6719 15.8826C18.1412 15.0254 18.1057 14.0223 17.5742 13.2006H17.5713ZM8.99852 18.3035C8.16804 18.3035 7.42934 17.8948 6.9882 17.2531H11.0103C10.5692 17.8948 9.829 18.3035 9 18.3035H8.99852ZM16.1738 15.0697C16.0939 15.2158 15.854 15.5551 15.3522 15.5551H2.64336C2.14152 15.5551 1.9017 15.2158 1.82176 15.0697C1.74182 14.9237 1.5849 14.5386 1.85581 14.1182L3.99344 10.8092V7.33201C3.99344 5.07929 5.83204 3.24703 8.09254 3.24703H9.90154C12.162 3.24703 14.0006 5.07929 14.0006 7.33201V10.8092L16.1383 14.1167C16.4092 14.5371 16.2523 14.9222 16.1723 15.0682L16.1738 15.0697Z" fill="#AFB9CA"/>
</svg>
