<svg width="15" height="14" viewBox="0 0 15 14" fill="none" xmlns="http://www.w3.org/2000/svg">
<circle cx="7.5" cy="7" r="7" fill="#01B99F"/>
<path d="M6.09471 8.38071L10.2397 4.19509C10.3685 4.06503 10.5324 4 10.7315 4C10.9305 4 11.0945 4.06503 11.2233 4.19509C11.3521 4.32515 11.4165 4.49069 11.4165 4.69169C11.4165 4.89269 11.3521 5.05823 11.2233 5.18829L6.58649 9.8705C6.44598 10.0124 6.28206 10.0833 6.09471 10.0833C5.90737 10.0833 5.74344 10.0124 5.60294 9.8705L3.77633 8.026C3.64753 7.89593 3.58313 7.7304 3.58313 7.5294C3.58313 7.32839 3.64753 7.16286 3.77633 7.0328C3.90513 6.90274 4.06905 6.83771 4.26811 6.83771C4.46716 6.83771 4.63109 6.90274 4.75989 7.0328L6.09471 8.38071Z" fill="white"/>
</svg>
