<svg width="67" height="25" viewBox="0 0 67 25" fill="none" xmlns="http://www.w3.org/2000/svg">
<path d="M17.2407 14.5495L17.086 14.4095C18.4964 12.8514 19.1819 11.366 19.1819 9.99213C19.1819 8.2563 17.7151 6.82894 15.894 6.82894C14.7349 6.82894 13.6865 7.39861 13.0846 8.34809L17.2407 14.5495ZM17.2407 14.5495L17.086 14.4095C15.9476 15.6672 14.3689 16.9239 12.5003 18.0562C10.6317 16.9239 9.05317 15.6672 7.91451 14.4095C6.50392 12.8515 5.81864 11.366 5.81864 9.99213C5.81864 8.2563 7.28544 6.82894 9.10655 6.82894C10.2657 6.82894 11.3139 7.39868 11.9161 8.34836L11.9161 8.34839M17.2407 14.5495L11.9161 8.34839M11.9161 8.34839C12.0428 8.54813 12.265 8.66633 12.5003 8.66633M11.9161 8.34839L12.5003 8.66633M12.5003 6.89943C13.3725 6.00071 14.5872 5.48583 15.8934 5.4857L12.5003 6.89943ZM12.5003 6.89943C11.6279 6.00037 10.4132 5.4857 9.10655 5.4857C6.54389 5.4857 4.44404 7.49875 4.44404 9.99213C4.44404 12.2444 5.82703 14.274 7.45221 15.8871C9.08348 17.5064 10.9986 18.7457 12.1463 19.4185L12.5003 6.89943ZM12.5003 8.66633C12.7352 8.66633 12.9578 8.54839 13.0844 8.34833L12.5003 8.66633ZM12.1464 19.4186C12.2558 19.4828 12.3782 19.5143 12.5 19.5143C12.6218 19.5143 12.7442 19.4828 12.8535 19.4186C14.0013 18.7459 15.9166 17.5066 17.5479 15.8873C19.173 14.2742 20.556 12.2445 20.556 9.99213C20.556 7.49919 18.4567 5.48597 15.894 5.4857L12.1464 19.4186Z" fill="#AFB9CA" stroke="#AFB9CA" stroke-width="0.486919"/>
<path d="M26.6205 12.8366L25.9449 12.6631L26.2782 9.35356H29.6881V10.1342H26.9948L26.794 11.9418C26.9157 11.8718 27.0694 11.8064 27.255 11.7455C27.4437 11.6847 27.6598 11.6543 27.9033 11.6543C28.2106 11.6543 28.486 11.7075 28.7295 11.814C28.973 11.9175 29.1799 12.0666 29.3503 12.2614C29.5238 12.4561 29.6562 12.6905 29.7475 12.9644C29.8388 13.2383 29.8844 13.5441 29.8844 13.8819C29.8844 14.2014 29.8403 14.4951 29.752 14.7629C29.6668 15.0307 29.5375 15.2651 29.364 15.4659C29.1905 15.6637 28.9714 15.8174 28.7067 15.927C28.4449 16.0365 28.1361 16.0913 27.78 16.0913C27.5122 16.0913 27.2581 16.0548 27.0177 15.9817C26.7803 15.9057 26.5673 15.7915 26.3786 15.6394C26.193 15.4842 26.0408 15.2924 25.9221 15.0642C25.8065 14.8329 25.7334 14.5621 25.703 14.2517H26.5064C26.5429 14.5012 26.616 14.7112 26.7255 14.8816C26.8351 15.052 26.9781 15.1814 27.1546 15.2696C27.3342 15.3548 27.5426 15.3974 27.78 15.3974C27.9809 15.3974 28.1589 15.3624 28.3141 15.2924C28.4693 15.2225 28.6002 15.122 28.7067 14.9912C28.8132 14.8603 28.8938 14.7021 28.9486 14.5164C29.0064 14.3308 29.0353 14.1223 29.0353 13.891C29.0353 13.6811 29.0064 13.4863 28.9486 13.3067C28.8908 13.1272 28.8041 12.9705 28.6884 12.8366C28.5758 12.7026 28.4373 12.5992 28.273 12.5261C28.1087 12.4501 27.92 12.412 27.707 12.412C27.4239 12.412 27.2094 12.4501 27.0633 12.5261C26.9203 12.6022 26.7727 12.7057 26.6205 12.8366Z" fill="#919EB6"/>
<mask id="path-3-outside-1_5_128" maskUnits="userSpaceOnUse" x="40.7922" y="4.20819" width="16" height="16" fill="black">
<rect fill="white" x="40.7922" y="4.20819" width="16" height="16"/>
<path d="M54.7023 16.2397C55.3508 15.2064 55.7173 14.0124 55.7824 12.7988C55.8482 11.5679 55.5811 10.3339 55.0352 9.22885C54.5083 8.16188 53.703 7.24957 52.7356 6.55402C51.7452 5.84164 50.5807 5.41614 49.3713 5.26268C49.0832 5.22622 48.7927 5.20859 48.5022 5.20819C46.7804 5.2118 45.1205 5.82241 43.8008 6.91462C42.5417 7.95674 41.6515 9.45242 41.3476 11.0511C41.1904 11.8796 41.2123 12.7094 41.2123 13.5468V16.8695C41.2123 17.6236 41.2046 18.378 41.2123 19.1317C41.2123 19.1437 41.2123 19.1557 41.2123 19.1677C41.2123 19.4362 41.4418 19.6641 41.7129 19.6641H47.4992C47.8823 19.6641 48.2658 19.6705 48.6488 19.6625C49.8788 19.6365 51.0975 19.3019 52.1614 18.6885C53.193 18.0939 54.0715 17.2433 54.7019 16.2393L54.7023 16.2397ZM51.4527 17.9445C51.3311 18.009 51.2078 18.0699 51.0826 18.1272C51.049 18.1424 51.0155 18.1576 50.9815 18.1721C50.9767 18.1741 50.9666 18.1785 50.9553 18.1833C50.9371 18.1905 50.9072 18.2029 50.8967 18.2073C50.8579 18.2225 50.8191 18.2378 50.7803 18.2522C50.5189 18.3508 50.251 18.4333 49.979 18.4986C49.8368 18.5331 49.6934 18.5627 49.5495 18.5876C49.4841 18.5988 49.4182 18.6088 49.3523 18.6188C49.3115 18.624 49.2703 18.6288 49.2295 18.6328C48.7616 18.6821 48.2904 18.6709 47.8209 18.6709H42.2148V13.9647C42.2148 13.2848 42.1824 12.5936 42.2346 11.9149C42.2418 11.8199 42.2511 11.725 42.2624 11.6304C42.2641 11.6184 42.2653 11.606 42.2669 11.594C42.2669 11.594 42.2669 11.594 42.2669 11.5936C42.2754 11.5375 42.2839 11.4818 42.2936 11.4257C42.3271 11.2322 42.3687 11.0399 42.4192 10.8499C42.4689 10.662 42.5271 10.4765 42.5934 10.2938C42.6245 10.2073 42.6576 10.1215 42.6928 10.0366C42.6904 10.0422 42.6879 10.0474 42.6847 10.0538C42.6924 10.0374 42.6992 10.0202 42.7065 10.0033C42.7287 9.95285 42.7514 9.90317 42.7744 9.85349C42.9364 9.50731 43.1284 9.17516 43.3474 8.86144C43.3987 8.78772 43.4516 8.7148 43.5062 8.64348C43.5025 8.64789 43.5001 8.65069 43.4957 8.6559C43.5102 8.63867 43.524 8.62024 43.5381 8.60261C43.5692 8.56375 43.6007 8.52529 43.6327 8.48682C43.7575 8.33778 43.8892 8.19394 44.0266 8.05571C44.1608 7.92108 44.301 7.79167 44.4461 7.66867C44.5127 7.61217 44.5806 7.55768 44.6493 7.50359C44.6432 7.5076 44.6388 7.51121 44.6315 7.51641C44.6416 7.5092 44.6513 7.50159 44.661 7.49438C44.6635 7.49237 44.6655 7.49077 44.6679 7.48877C44.6744 7.48356 44.6824 7.47795 44.6889 7.47354C44.6917 7.47154 44.6942 7.46954 44.697 7.46753C44.7406 7.43508 44.7851 7.40303 44.8295 7.37177C45.1431 7.15101 45.4756 6.95669 45.8223 6.79201C45.9019 6.75395 45.9828 6.71829 46.064 6.68303C46.0785 6.67702 46.0935 6.67101 46.108 6.6654C46.1597 6.64497 46.2115 6.62494 46.2636 6.60571C46.447 6.53799 46.6329 6.47829 46.8216 6.42661C47.0123 6.37452 47.2051 6.33045 47.3994 6.29479C47.4928 6.27756 47.5877 6.26755 47.6811 6.24952C47.5138 6.28157 47.6754 6.25072 47.7187 6.24551C47.776 6.2391 47.8334 6.23309 47.8908 6.22828C48.094 6.21025 48.2981 6.20184 48.5022 6.20144C48.7911 6.20224 49.0788 6.22147 49.3657 6.25593C49.3705 6.25673 49.3754 6.25713 49.3802 6.25793C49.4133 6.26274 49.4461 6.26795 49.4788 6.27316C49.5536 6.28517 49.6283 6.2988 49.7027 6.31362C49.8413 6.34087 49.9786 6.37252 50.1152 6.40858C50.3896 6.4807 50.6591 6.57005 50.9221 6.67622C50.9286 6.67903 50.9355 6.68143 50.9424 6.68424C50.9638 6.69345 50.9852 6.70267 51.0066 6.71188C51.0741 6.74153 51.1408 6.77238 51.207 6.80403C51.3311 6.86373 51.4531 6.92704 51.5731 6.99395C51.816 7.12937 52.0503 7.27962 52.2746 7.44389C52.2984 7.46152 52.3223 7.47915 52.3457 7.49678C52.3497 7.49999 52.3538 7.50319 52.3578 7.506C52.4116 7.54807 52.4641 7.59094 52.5166 7.63461C52.6245 7.72476 52.7296 7.81811 52.8318 7.91467C53.0294 8.10138 53.2157 8.29971 53.3894 8.50886C53.4125 8.5369 53.4355 8.56495 53.4581 8.593C53.4622 8.59821 53.4731 8.61183 53.4832 8.62465C53.4945 8.63907 53.5078 8.6567 53.5135 8.66392C53.5353 8.69276 53.5567 8.72201 53.5781 8.75126C53.661 8.86505 53.7402 8.98124 53.8157 9.09984C53.9624 9.33062 54.0953 9.57022 54.2125 9.81662C54.242 9.87873 54.2707 9.94083 54.2982 10.0037C54.299 10.0053 54.2998 10.0069 54.3002 10.0089C54.3144 10.0442 54.3289 10.0787 54.343 10.1139C54.3939 10.2425 54.4408 10.3727 54.4832 10.5042C54.5697 10.7698 54.6388 11.0411 54.6909 11.3155C54.7043 11.3848 54.716 11.4545 54.7273 11.5243C54.7326 11.5571 54.7366 11.59 54.7419 11.6224C54.7144 11.4561 54.7398 11.6084 54.7443 11.6457C54.7613 11.7879 54.7734 11.9309 54.7811 12.074C54.7968 12.3681 54.7936 12.6633 54.771 12.957C54.7657 13.0235 54.7596 13.09 54.7524 13.1566C54.7487 13.1898 54.7451 13.2227 54.7411 13.2559C54.7402 13.2635 54.739 13.2711 54.7382 13.2792C54.7164 13.4186 54.693 13.5576 54.6639 13.6958C54.6053 13.9731 54.5285 14.2464 54.4352 14.5136C54.4137 14.5745 54.3915 14.635 54.3685 14.6951C54.3568 14.7252 54.3451 14.7552 54.3333 14.7849C54.3273 14.7997 54.2978 14.8702 54.2945 14.8786C54.2917 14.8854 54.2889 14.8914 54.2877 14.8942C54.2727 14.9279 54.2578 14.9611 54.2424 14.9944C54.2137 15.0565 54.1838 15.1182 54.1531 15.1795C54.0287 15.4275 53.8889 15.6679 53.7345 15.8987C53.6589 16.0117 53.5797 16.1227 53.4977 16.2308C53.4949 16.2349 53.4917 16.2389 53.4884 16.2429C53.4698 16.2661 53.4516 16.2889 53.4331 16.3122C53.3902 16.3647 53.3466 16.4168 53.3021 16.4684C53.1215 16.6772 52.9276 16.8751 52.7227 17.0602C52.6217 17.1516 52.5182 17.2397 52.412 17.3247C52.3901 17.3423 52.3679 17.3595 52.3457 17.3771C52.3404 17.3812 52.3352 17.3852 52.3304 17.3888C52.2722 17.4324 52.2132 17.4749 52.1534 17.5166C51.9291 17.6732 51.6951 17.8163 51.4531 17.9449L51.4527 17.9445Z"/>
</mask>
<path d="M54.7023 16.2397C55.3508 15.2064 55.7173 14.0124 55.7824 12.7988C55.8482 11.5679 55.5811 10.3339 55.0352 9.22885C54.5083 8.16188 53.703 7.24957 52.7356 6.55402C51.7452 5.84164 50.5807 5.41614 49.3713 5.26268C49.0832 5.22622 48.7927 5.20859 48.5022 5.20819C46.7804 5.2118 45.1205 5.82241 43.8008 6.91462C42.5417 7.95674 41.6515 9.45242 41.3476 11.0511C41.1904 11.8796 41.2123 12.7094 41.2123 13.5468V16.8695C41.2123 17.6236 41.2046 18.378 41.2123 19.1317C41.2123 19.1437 41.2123 19.1557 41.2123 19.1677C41.2123 19.4362 41.4418 19.6641 41.7129 19.6641H47.4992C47.8823 19.6641 48.2658 19.6705 48.6488 19.6625C49.8788 19.6365 51.0975 19.3019 52.1614 18.6885C53.193 18.0939 54.0715 17.2433 54.7019 16.2393L54.7023 16.2397ZM51.4527 17.9445C51.3311 18.009 51.2078 18.0699 51.0826 18.1272C51.049 18.1424 51.0155 18.1576 50.9815 18.1721C50.9767 18.1741 50.9666 18.1785 50.9553 18.1833C50.9371 18.1905 50.9072 18.2029 50.8967 18.2073C50.8579 18.2225 50.8191 18.2378 50.7803 18.2522C50.5189 18.3508 50.251 18.4333 49.979 18.4986C49.8368 18.5331 49.6934 18.5627 49.5495 18.5876C49.4841 18.5988 49.4182 18.6088 49.3523 18.6188C49.3115 18.624 49.2703 18.6288 49.2295 18.6328C48.7616 18.6821 48.2904 18.6709 47.8209 18.6709H42.2148V13.9647C42.2148 13.2848 42.1824 12.5936 42.2346 11.9149C42.2418 11.8199 42.2511 11.725 42.2624 11.6304C42.2641 11.6184 42.2653 11.606 42.2669 11.594C42.2669 11.594 42.2669 11.594 42.2669 11.5936C42.2754 11.5375 42.2839 11.4818 42.2936 11.4257C42.3271 11.2322 42.3687 11.0399 42.4192 10.8499C42.4689 10.662 42.5271 10.4765 42.5934 10.2938C42.6245 10.2073 42.6576 10.1215 42.6928 10.0366C42.6904 10.0422 42.6879 10.0474 42.6847 10.0538C42.6924 10.0374 42.6992 10.0202 42.7065 10.0033C42.7287 9.95285 42.7514 9.90317 42.7744 9.85349C42.9364 9.50731 43.1284 9.17516 43.3474 8.86144C43.3987 8.78772 43.4516 8.7148 43.5062 8.64348C43.5025 8.64789 43.5001 8.65069 43.4957 8.6559C43.5102 8.63867 43.524 8.62024 43.5381 8.60261C43.5692 8.56375 43.6007 8.52529 43.6327 8.48682C43.7575 8.33778 43.8892 8.19394 44.0266 8.05571C44.1608 7.92108 44.301 7.79167 44.4461 7.66867C44.5127 7.61217 44.5806 7.55768 44.6493 7.50359C44.6432 7.5076 44.6388 7.51121 44.6315 7.51641C44.6416 7.5092 44.6513 7.50159 44.661 7.49438C44.6635 7.49237 44.6655 7.49077 44.6679 7.48877C44.6744 7.48356 44.6824 7.47795 44.6889 7.47354C44.6917 7.47154 44.6942 7.46954 44.697 7.46753C44.7406 7.43508 44.7851 7.40303 44.8295 7.37177C45.1431 7.15101 45.4756 6.95669 45.8223 6.79201C45.9019 6.75395 45.9828 6.71829 46.064 6.68303C46.0785 6.67702 46.0935 6.67101 46.108 6.6654C46.1597 6.64497 46.2115 6.62494 46.2636 6.60571C46.447 6.53799 46.6329 6.47829 46.8216 6.42661C47.0123 6.37452 47.2051 6.33045 47.3994 6.29479C47.4928 6.27756 47.5877 6.26755 47.6811 6.24952C47.5138 6.28157 47.6754 6.25072 47.7187 6.24551C47.776 6.2391 47.8334 6.23309 47.8908 6.22828C48.094 6.21025 48.2981 6.20184 48.5022 6.20144C48.7911 6.20224 49.0788 6.22147 49.3657 6.25593C49.3705 6.25673 49.3754 6.25713 49.3802 6.25793C49.4133 6.26274 49.4461 6.26795 49.4788 6.27316C49.5536 6.28517 49.6283 6.2988 49.7027 6.31362C49.8413 6.34087 49.9786 6.37252 50.1152 6.40858C50.3896 6.4807 50.6591 6.57005 50.9221 6.67622C50.9286 6.67903 50.9355 6.68143 50.9424 6.68424C50.9638 6.69345 50.9852 6.70267 51.0066 6.71188C51.0741 6.74153 51.1408 6.77238 51.207 6.80403C51.3311 6.86373 51.4531 6.92704 51.5731 6.99395C51.816 7.12937 52.0503 7.27962 52.2746 7.44389C52.2984 7.46152 52.3223 7.47915 52.3457 7.49678C52.3497 7.49999 52.3538 7.50319 52.3578 7.506C52.4116 7.54807 52.4641 7.59094 52.5166 7.63461C52.6245 7.72476 52.7296 7.81811 52.8318 7.91467C53.0294 8.10138 53.2157 8.29971 53.3894 8.50886C53.4125 8.5369 53.4355 8.56495 53.4581 8.593C53.4622 8.59821 53.4731 8.61183 53.4832 8.62465C53.4945 8.63907 53.5078 8.6567 53.5135 8.66392C53.5353 8.69276 53.5567 8.72201 53.5781 8.75126C53.661 8.86505 53.7402 8.98124 53.8157 9.09984C53.9624 9.33062 54.0953 9.57022 54.2125 9.81662C54.242 9.87873 54.2707 9.94083 54.2982 10.0037C54.299 10.0053 54.2998 10.0069 54.3002 10.0089C54.3144 10.0442 54.3289 10.0787 54.343 10.1139C54.3939 10.2425 54.4408 10.3727 54.4832 10.5042C54.5697 10.7698 54.6388 11.0411 54.6909 11.3155C54.7043 11.3848 54.716 11.4545 54.7273 11.5243C54.7326 11.5571 54.7366 11.59 54.7419 11.6224C54.7144 11.4561 54.7398 11.6084 54.7443 11.6457C54.7613 11.7879 54.7734 11.9309 54.7811 12.074C54.7968 12.3681 54.7936 12.6633 54.771 12.957C54.7657 13.0235 54.7596 13.09 54.7524 13.1566C54.7487 13.1898 54.7451 13.2227 54.7411 13.2559C54.7402 13.2635 54.739 13.2711 54.7382 13.2792C54.7164 13.4186 54.693 13.5576 54.6639 13.6958C54.6053 13.9731 54.5285 14.2464 54.4352 14.5136C54.4137 14.5745 54.3915 14.635 54.3685 14.6951C54.3568 14.7252 54.3451 14.7552 54.3333 14.7849C54.3273 14.7997 54.2978 14.8702 54.2945 14.8786C54.2917 14.8854 54.2889 14.8914 54.2877 14.8942C54.2727 14.9279 54.2578 14.9611 54.2424 14.9944C54.2137 15.0565 54.1838 15.1182 54.1531 15.1795C54.0287 15.4275 53.8889 15.6679 53.7345 15.8987C53.6589 16.0117 53.5797 16.1227 53.4977 16.2308C53.4949 16.2349 53.4917 16.2389 53.4884 16.2429C53.4698 16.2661 53.4516 16.2889 53.4331 16.3122C53.3902 16.3647 53.3466 16.4168 53.3021 16.4684C53.1215 16.6772 52.9276 16.8751 52.7227 17.0602C52.6217 17.1516 52.5182 17.2397 52.412 17.3247C52.3901 17.3423 52.3679 17.3595 52.3457 17.3771C52.3404 17.3812 52.3352 17.3852 52.3304 17.3888C52.2722 17.4324 52.2132 17.4749 52.1534 17.5166C51.9291 17.6732 51.6951 17.8163 51.4531 17.9449L51.4527 17.9445Z" fill="#AFB9CA"/>
<path d="M54.7023 16.2397C55.3508 15.2064 55.7173 14.0124 55.7824 12.7988C55.8482 11.5679 55.5811 10.3339 55.0352 9.22885C54.5083 8.16188 53.703 7.24957 52.7356 6.55402C51.7452 5.84164 50.5807 5.41614 49.3713 5.26268C49.0832 5.22622 48.7927 5.20859 48.5022 5.20819C46.7804 5.2118 45.1205 5.82241 43.8008 6.91462C42.5417 7.95674 41.6515 9.45242 41.3476 11.0511C41.1904 11.8796 41.2123 12.7094 41.2123 13.5468V16.8695C41.2123 17.6236 41.2046 18.378 41.2123 19.1317C41.2123 19.1437 41.2123 19.1557 41.2123 19.1677C41.2123 19.4362 41.4418 19.6641 41.7129 19.6641H47.4992C47.8823 19.6641 48.2658 19.6705 48.6488 19.6625C49.8788 19.6365 51.0975 19.3019 52.1614 18.6885C53.193 18.0939 54.0715 17.2433 54.7019 16.2393L54.7023 16.2397ZM51.4527 17.9445C51.3311 18.009 51.2078 18.0699 51.0826 18.1272C51.049 18.1424 51.0155 18.1576 50.9815 18.1721C50.9767 18.1741 50.9666 18.1785 50.9553 18.1833C50.9371 18.1905 50.9072 18.2029 50.8967 18.2073C50.8579 18.2225 50.8191 18.2378 50.7803 18.2522C50.5189 18.3508 50.251 18.4333 49.979 18.4986C49.8368 18.5331 49.6934 18.5627 49.5495 18.5876C49.4841 18.5988 49.4182 18.6088 49.3523 18.6188C49.3115 18.624 49.2703 18.6288 49.2295 18.6328C48.7616 18.6821 48.2904 18.6709 47.8209 18.6709H42.2148V13.9647C42.2148 13.2848 42.1824 12.5936 42.2346 11.9149C42.2418 11.8199 42.2511 11.725 42.2624 11.6304C42.2641 11.6184 42.2653 11.606 42.2669 11.594C42.2669 11.594 42.2669 11.594 42.2669 11.5936C42.2754 11.5375 42.2839 11.4818 42.2936 11.4257C42.3271 11.2322 42.3687 11.0399 42.4192 10.8499C42.4689 10.662 42.5271 10.4765 42.5934 10.2938C42.6245 10.2073 42.6576 10.1215 42.6928 10.0366C42.6904 10.0422 42.6879 10.0474 42.6847 10.0538C42.6924 10.0374 42.6992 10.0202 42.7065 10.0033C42.7287 9.95285 42.7514 9.90317 42.7744 9.85349C42.9364 9.50731 43.1284 9.17516 43.3474 8.86144C43.3987 8.78772 43.4516 8.7148 43.5062 8.64348C43.5025 8.64789 43.5001 8.65069 43.4957 8.6559C43.5102 8.63867 43.524 8.62024 43.5381 8.60261C43.5692 8.56375 43.6007 8.52529 43.6327 8.48682C43.7575 8.33778 43.8892 8.19394 44.0266 8.05571C44.1608 7.92108 44.301 7.79167 44.4461 7.66867C44.5127 7.61217 44.5806 7.55768 44.6493 7.50359C44.6432 7.5076 44.6388 7.51121 44.6315 7.51641C44.6416 7.5092 44.6513 7.50159 44.661 7.49438C44.6635 7.49237 44.6655 7.49077 44.6679 7.48877C44.6744 7.48356 44.6824 7.47795 44.6889 7.47354C44.6917 7.47154 44.6942 7.46954 44.697 7.46753C44.7406 7.43508 44.7851 7.40303 44.8295 7.37177C45.1431 7.15101 45.4756 6.95669 45.8223 6.79201C45.9019 6.75395 45.9828 6.71829 46.064 6.68303C46.0785 6.67702 46.0935 6.67101 46.108 6.6654C46.1597 6.64497 46.2115 6.62494 46.2636 6.60571C46.447 6.53799 46.6329 6.47829 46.8216 6.42661C47.0123 6.37452 47.2051 6.33045 47.3994 6.29479C47.4928 6.27756 47.5877 6.26755 47.6811 6.24952C47.5138 6.28157 47.6754 6.25072 47.7187 6.24551C47.776 6.2391 47.8334 6.23309 47.8908 6.22828C48.094 6.21025 48.2981 6.20184 48.5022 6.20144C48.7911 6.20224 49.0788 6.22147 49.3657 6.25593C49.3705 6.25673 49.3754 6.25713 49.3802 6.25793C49.4133 6.26274 49.4461 6.26795 49.4788 6.27316C49.5536 6.28517 49.6283 6.2988 49.7027 6.31362C49.8413 6.34087 49.9786 6.37252 50.1152 6.40858C50.3896 6.4807 50.6591 6.57005 50.9221 6.67622C50.9286 6.67903 50.9355 6.68143 50.9424 6.68424C50.9638 6.69345 50.9852 6.70267 51.0066 6.71188C51.0741 6.74153 51.1408 6.77238 51.207 6.80403C51.3311 6.86373 51.4531 6.92704 51.5731 6.99395C51.816 7.12937 52.0503 7.27962 52.2746 7.44389C52.2984 7.46152 52.3223 7.47915 52.3457 7.49678C52.3497 7.49999 52.3538 7.50319 52.3578 7.506C52.4116 7.54807 52.4641 7.59094 52.5166 7.63461C52.6245 7.72476 52.7296 7.81811 52.8318 7.91467C53.0294 8.10138 53.2157 8.29971 53.3894 8.50886C53.4125 8.5369 53.4355 8.56495 53.4581 8.593C53.4622 8.59821 53.4731 8.61183 53.4832 8.62465C53.4945 8.63907 53.5078 8.6567 53.5135 8.66392C53.5353 8.69276 53.5567 8.72201 53.5781 8.75126C53.661 8.86505 53.7402 8.98124 53.8157 9.09984C53.9624 9.33062 54.0953 9.57022 54.2125 9.81662C54.242 9.87873 54.2707 9.94083 54.2982 10.0037C54.299 10.0053 54.2998 10.0069 54.3002 10.0089C54.3144 10.0442 54.3289 10.0787 54.343 10.1139C54.3939 10.2425 54.4408 10.3727 54.4832 10.5042C54.5697 10.7698 54.6388 11.0411 54.6909 11.3155C54.7043 11.3848 54.716 11.4545 54.7273 11.5243C54.7326 11.5571 54.7366 11.59 54.7419 11.6224C54.7144 11.4561 54.7398 11.6084 54.7443 11.6457C54.7613 11.7879 54.7734 11.9309 54.7811 12.074C54.7968 12.3681 54.7936 12.6633 54.771 12.957C54.7657 13.0235 54.7596 13.09 54.7524 13.1566C54.7487 13.1898 54.7451 13.2227 54.7411 13.2559C54.7402 13.2635 54.739 13.2711 54.7382 13.2792C54.7164 13.4186 54.693 13.5576 54.6639 13.6958C54.6053 13.9731 54.5285 14.2464 54.4352 14.5136C54.4137 14.5745 54.3915 14.635 54.3685 14.6951C54.3568 14.7252 54.3451 14.7552 54.3333 14.7849C54.3273 14.7997 54.2978 14.8702 54.2945 14.8786C54.2917 14.8854 54.2889 14.8914 54.2877 14.8942C54.2727 14.9279 54.2578 14.9611 54.2424 14.9944C54.2137 15.0565 54.1838 15.1182 54.1531 15.1795C54.0287 15.4275 53.8889 15.6679 53.7345 15.8987C53.6589 16.0117 53.5797 16.1227 53.4977 16.2308C53.4949 16.2349 53.4917 16.2389 53.4884 16.2429C53.4698 16.2661 53.4516 16.2889 53.4331 16.3122C53.3902 16.3647 53.3466 16.4168 53.3021 16.4684C53.1215 16.6772 52.9276 16.8751 52.7227 17.0602C52.6217 17.1516 52.5182 17.2397 52.412 17.3247C52.3901 17.3423 52.3679 17.3595 52.3457 17.3771C52.3404 17.3812 52.3352 17.3852 52.3304 17.3888C52.2722 17.4324 52.2132 17.4749 52.1534 17.5166C51.9291 17.6732 51.6951 17.8163 51.4531 17.9449L51.4527 17.9445Z" stroke="#AFB9CA" stroke-width="0.74701" stroke-linejoin="round" mask="url(#path-3-outside-1_5_128)"/>
<path d="M47.699 12.6235C47.5935 12.1805 47.8702 11.7367 48.317 11.6321C48.7638 11.5275 49.2114 11.8019 49.3169 12.2449C49.4223 12.6879 49.1456 13.1318 48.6989 13.2363C48.2521 13.3409 47.8044 13.0665 47.699 12.6235Z" fill="#AFB9CA"/>
<path d="M51.4227 13.1973C50.9986 13.0231 50.7972 12.541 50.9728 12.1205C51.1485 11.7 51.6347 11.5003 52.0588 11.6744C52.4829 11.8486 52.6843 12.3307 52.5086 12.7513C52.333 13.1718 51.8468 13.3715 51.4227 13.1973Z" fill="#AFB9CA"/>
<path d="M45.2534 13.2603C44.7943 13.2603 44.4222 12.8913 44.4222 12.4361C44.4222 11.9809 44.7943 11.6119 45.2534 11.6119C45.7124 11.6119 46.0845 11.9809 46.0845 12.4361C46.0845 12.8913 45.7124 13.2603 45.2534 13.2603Z" fill="#AFB9CA"/>
<path d="M62.6205 12.8366L61.9449 12.6631L62.2782 9.35356H65.6881V10.1342H62.9948L62.794 11.9418C62.9157 11.8718 63.0694 11.8064 63.255 11.7455C63.4437 11.6847 63.6598 11.6543 63.9033 11.6543C64.2106 11.6543 64.486 11.7075 64.7295 11.814C64.973 11.9175 65.1799 12.0666 65.3503 12.2614C65.5238 12.4561 65.6562 12.6905 65.7475 12.9644C65.8388 13.2383 65.8844 13.5441 65.8844 13.8819C65.8844 14.2014 65.8403 14.4951 65.752 14.7629C65.6668 15.0307 65.5375 15.2651 65.364 15.4659C65.1905 15.6637 64.9714 15.8174 64.7067 15.927C64.4449 16.0365 64.1361 16.0913 63.78 16.0913C63.5122 16.0913 63.2581 16.0548 63.0177 15.9817C62.7803 15.9057 62.5673 15.7915 62.3786 15.6394C62.193 15.4842 62.0408 15.2924 61.9221 15.0642C61.8065 14.8329 61.7334 14.5621 61.703 14.2517H62.5064C62.5429 14.5012 62.616 14.7112 62.7255 14.8816C62.8351 15.052 62.9781 15.1814 63.1546 15.2696C63.3342 15.3548 63.5426 15.3974 63.78 15.3974C63.9809 15.3974 64.1589 15.3624 64.3141 15.2924C64.4693 15.2225 64.6002 15.122 64.7067 14.9912C64.8132 14.8603 64.8938 14.7021 64.9486 14.5164C65.0064 14.3308 65.0353 14.1223 65.0353 13.891C65.0353 13.6811 65.0064 13.4863 64.9486 13.3067C64.8908 13.1272 64.8041 12.9705 64.6884 12.8366C64.5758 12.7026 64.4373 12.5992 64.273 12.5261C64.1087 12.4501 63.92 12.412 63.707 12.412C63.4239 12.412 63.2094 12.4501 63.0633 12.5261C62.9203 12.6022 62.7727 12.7057 62.6205 12.8366Z" fill="#919EB6"/>
</svg>
