<svg width="22" height="20" viewBox="0 0 22 20" fill="none" xmlns="http://www.w3.org/2000/svg">
<path d="M17.1011 12.6533L16.8694 12.4436C18.6746 10.4493 19.5519 8.54818 19.5519 6.78992C19.5519 4.56856 17.6749 2.74191 15.3443 2.74191C13.8609 2.74191 12.5193 3.47093 11.749 4.68602L17.1011 12.6533ZM17.1011 12.6533L16.8694 12.4436C15.4124 14.0532 13.3919 15.6617 11.0003 17.1109C8.60878 15.6617 6.58855 14.0532 5.13121 12.4435C3.32574 10.4494 2.44873 8.5482 2.44873 6.78992C2.44873 4.56856 4.32581 2.74191 6.65639 2.74191C8.13982 2.74191 9.48128 3.47103 10.2519 4.68637L10.2519 4.6864M17.1011 12.6533L10.2519 4.6864M10.2519 4.6864C10.4143 4.94233 10.6989 5.09377 11.0003 5.09377M10.2519 4.6864L11.0003 5.09377M11.0004 2.83001C12.117 1.67987 13.6718 1.02099 15.3436 1.02081L11.0004 2.83001ZM11.0004 2.83001C9.88363 1.67943 8.3288 1.02081 6.65639 1.02081C3.37573 1.02081 0.6875 3.59788 0.6875 6.78992C0.6875 9.67318 2.45794 12.2713 4.53821 14.3362C6.62642 16.4089 9.078 17.9953 10.547 18.8566M11.0004 2.83001L15.3443 1.02081C18.625 1.02116 21.3125 3.59845 21.3125 6.78992C21.3125 9.67333 19.5422 12.2715 17.4619 14.3364C15.3737 16.4092 12.9222 17.9955 11.4529 18.8566M10.547 18.8566C10.547 18.8565 10.5469 18.8565 10.5468 18.8564L10.7051 18.587L10.547 18.8566ZM10.547 18.8566C10.6872 18.9388 10.844 18.9791 11 18.9791C11.156 18.9791 11.3128 18.9388 11.4529 18.8566M11.4529 18.8566C11.453 18.8565 11.4531 18.8565 11.4532 18.8564L11.2949 18.587L11.4529 18.8566ZM11.0003 5.09377C11.3014 5.09377 11.5866 4.94266 11.7488 4.68632L11.0003 5.09377Z" fill="#AFB9CA" stroke="#AFB9CA" stroke-width="0.625"/>
</svg>
