<svg width="166" height="32" viewBox="0 0 166 32" fill="none" xmlns="http://www.w3.org/2000/svg">
<path d="M22.1011 18.6533L21.8694 18.4436C23.6746 16.4494 24.5519 14.5482 24.5519 12.7899C24.5519 10.5686 22.6749 8.74194 20.3443 8.74194C18.8609 8.74194 17.5193 9.47096 16.749 10.686L22.1011 18.6533ZM22.1011 18.6533L21.8694 18.4436C20.4124 20.0532 18.3919 21.6617 16.0003 23.1109C13.6088 21.6617 11.5885 20.0532 10.1312 18.4436C8.32574 16.4494 7.44873 14.5482 7.44873 12.7899C7.44873 10.5686 9.32581 8.74194 11.6564 8.74194C13.1398 8.74194 14.4813 9.47106 15.2519 10.6864L15.2519 10.6864M22.1011 18.6533L15.2519 10.6864M15.2519 10.6864C15.4143 10.9424 15.6989 11.0938 16.0003 11.0938M15.2519 10.6864L16.0003 11.0938M16.0004 8.83004C17.117 7.6799 18.6718 7.02102 20.3436 7.02084L16.0004 8.83004ZM16.0004 8.83004C14.8836 7.67947 13.3288 7.02084 11.6564 7.02084C8.37573 7.02084 5.6875 9.59791 5.6875 12.7899C5.6875 15.6732 7.45794 18.2713 9.53821 20.3362C11.6264 22.409 14.078 23.9954 15.547 24.8566M16.0004 8.83004L20.3443 7.02084C23.625 7.02119 26.3125 9.59848 26.3125 12.7899C26.3125 15.6734 24.5422 18.2715 22.4619 20.3364C20.3737 22.4092 17.9222 23.9955 16.4529 24.8566M15.547 24.8566C15.547 24.8565 15.5469 24.8565 15.5468 24.8565L15.7051 24.587L15.547 24.8566ZM15.547 24.8566C15.6872 24.9388 15.844 24.9792 16 24.9792C16.156 24.9792 16.3128 24.9388 16.4529 24.8566M16.4529 24.8566C16.453 24.8566 16.4531 24.8565 16.4532 24.8565L16.2949 24.587L16.4529 24.8566ZM16.0003 11.0938C16.3014 11.0938 16.5866 10.9427 16.7488 10.6863L16.0003 11.0938Z" fill="#AFB9CA" stroke="#AFB9CA" stroke-width="0.625"/>
<path d="M34.0801 15.9395L33.2129 15.7168L33.6406 11.4688H38.0176V12.4707H34.5605L34.3027 14.791C34.459 14.7012 34.6562 14.6172 34.8945 14.5391C35.1367 14.4609 35.4141 14.4219 35.7266 14.4219C36.1211 14.4219 36.4746 14.4902 36.7871 14.627C37.0996 14.7598 37.3652 14.9512 37.584 15.2012C37.8066 15.4512 37.9766 15.752 38.0938 16.1035C38.2109 16.4551 38.2695 16.8477 38.2695 17.2812C38.2695 17.6914 38.2129 18.0684 38.0996 18.4121C37.9902 18.7559 37.8242 19.0566 37.6016 19.3145C37.3789 19.5684 37.0977 19.7656 36.7578 19.9062C36.4219 20.0469 36.0254 20.1172 35.5684 20.1172C35.2246 20.1172 34.8984 20.0703 34.5898 19.9766C34.2852 19.8789 34.0117 19.7324 33.7695 19.5371C33.5312 19.3379 33.3359 19.0918 33.1836 18.7988C33.0352 18.502 32.9414 18.1543 32.9023 17.7559H33.9336C33.9805 18.0762 34.0742 18.3457 34.2148 18.5645C34.3555 18.7832 34.5391 18.9492 34.7656 19.0625C34.9961 19.1719 35.2637 19.2266 35.5684 19.2266C35.8262 19.2266 36.0547 19.1816 36.2539 19.0918C36.4531 19.002 36.6211 18.873 36.7578 18.7051C36.8945 18.5371 36.998 18.334 37.0684 18.0957C37.1426 17.8574 37.1797 17.5898 37.1797 17.293C37.1797 17.0234 37.1426 16.7734 37.0684 16.543C36.9941 16.3125 36.8828 16.1113 36.7344 15.9395C36.5898 15.7676 36.4121 15.6348 36.2012 15.541C35.9902 15.4434 35.748 15.3945 35.4746 15.3945C35.1113 15.3945 34.8359 15.4434 34.6484 15.541C34.4648 15.6387 34.2754 15.7715 34.0801 15.9395Z" fill="#919EB6"/>
<mask id="path-3-outside-1_1_85" maskUnits="userSpaceOnUse" x="52.334" y="5.6665" width="21" height="20" fill="black">
<rect fill="white" x="52.334" y="5.6665" width="21" height="20"/>
<path d="M70.9389 20.7868C71.769 19.4642 72.2381 17.9359 72.3214 16.3824C72.4057 14.807 72.0638 13.2274 71.3651 11.8129C70.6906 10.4472 69.6598 9.27947 68.4216 8.38917C67.1539 7.47732 65.6633 6.93267 64.1153 6.73625C63.7465 6.68958 63.3746 6.66702 63.0028 6.6665C60.7989 6.67112 58.6742 7.4527 56.985 8.85073C55.3733 10.1847 54.2339 12.0991 53.845 14.1454C53.6438 15.206 53.6717 16.2681 53.6717 17.3399V21.593C53.6717 22.5582 53.6619 23.5239 53.6717 24.4885C53.6717 24.5039 53.6717 24.5193 53.6717 24.5347C53.6717 24.8783 53.9655 25.1701 54.3125 25.1701H61.719C62.2093 25.1701 62.7002 25.1783 63.1905 25.1681C64.7649 25.1347 66.3248 24.7065 67.6866 23.9213C69.0071 23.1603 70.1315 22.0715 70.9384 20.7863L70.9389 20.7868ZM66.7794 22.969C66.6238 23.0515 66.466 23.1295 66.3057 23.2028C66.2628 23.2223 66.2198 23.2418 66.1764 23.2603C66.1702 23.2628 66.1572 23.2685 66.1428 23.2746C66.1195 23.2839 66.0812 23.2998 66.0678 23.3054C66.0181 23.3249 65.9685 23.3444 65.9188 23.3628C65.5842 23.489 65.2413 23.5946 64.8932 23.6782C64.7111 23.7223 64.5275 23.7603 64.3434 23.7921C64.2596 23.8064 64.1753 23.8193 64.091 23.8321C64.0387 23.8388 63.986 23.8449 63.9337 23.85C63.3348 23.9131 62.7317 23.8988 62.1307 23.8988H54.9549V17.8748C54.9549 17.0045 54.9135 16.1199 54.9802 15.2511C54.9895 15.1295 55.0014 15.008 55.0159 14.887C55.018 14.8716 55.0196 14.8557 55.0216 14.8403C55.0216 14.8403 55.0216 14.8403 55.0216 14.8398C55.0325 14.768 55.0433 14.6967 55.0558 14.6249C55.0987 14.3772 55.152 14.131 55.2166 13.8879C55.2802 13.6474 55.3547 13.41 55.4395 13.1761C55.4793 13.0653 55.5218 12.9556 55.5668 12.8469C55.5637 12.854 55.5605 12.8607 55.5564 12.8689C55.5662 12.8479 55.575 12.8258 55.5843 12.8043C55.6128 12.7397 55.6418 12.6761 55.6712 12.6125C55.8786 12.1694 56.1243 11.7442 56.4046 11.3427C56.4703 11.2483 56.5381 11.155 56.6079 11.0637C56.6033 11.0693 56.6002 11.0729 56.5945 11.0796C56.6131 11.0575 56.6307 11.0339 56.6488 11.0114C56.6886 10.9616 56.7289 10.9124 56.7698 10.8632C56.9296 10.6724 57.0982 10.4883 57.2741 10.3113C57.4458 10.139 57.6253 9.97336 57.811 9.81591C57.8963 9.7436 57.9832 9.67385 58.0711 9.60462C58.0634 9.60975 58.0577 9.61436 58.0484 9.62103C58.0613 9.6118 58.0737 9.60205 58.0861 9.59282C58.0892 9.59026 58.0918 9.58821 58.0949 9.58564C58.1032 9.57898 58.1135 9.5718 58.1218 9.56616C58.1254 9.56359 58.1285 9.56103 58.1321 9.55846C58.188 9.51692 58.2449 9.47589 58.3018 9.43589C58.7031 9.15331 59.1288 8.90458 59.5726 8.6938C59.6745 8.64508 59.7779 8.59943 59.8819 8.5543C59.9005 8.54661 59.9196 8.53892 59.9383 8.53174C60.0045 8.50558 60.0707 8.47994 60.1374 8.45532C60.3722 8.36865 60.6101 8.29224 60.8517 8.22608C61.0958 8.15941 61.3425 8.103 61.5913 8.05735C61.7108 8.0353 61.8323 8.02248 61.9518 7.9994C61.7376 8.04043 61.9445 8.00094 61.9999 7.99427C62.0733 7.98607 62.1468 7.97837 62.2202 7.97222C62.4804 7.94914 62.7416 7.93837 63.0028 7.93786C63.3726 7.93888 63.7408 7.9635 64.108 8.00761C64.1142 8.00863 64.1205 8.00914 64.1267 8.01017C64.1691 8.01632 64.211 8.02299 64.2529 8.02966C64.3485 8.04504 64.4442 8.06248 64.5394 8.08146C64.7168 8.11633 64.8927 8.15684 65.0675 8.203C65.4187 8.29531 65.7636 8.40968 66.1004 8.54558C66.1086 8.54917 66.1174 8.55225 66.1262 8.55584C66.1536 8.56764 66.181 8.57943 66.2085 8.59123C66.2948 8.62918 66.3802 8.66867 66.465 8.70918C66.6238 8.7856 66.78 8.86663 66.9336 8.95227C67.2444 9.12562 67.5444 9.31794 67.8315 9.5282C67.862 9.55077 67.8925 9.57334 67.9225 9.5959C67.9277 9.6 67.9328 9.60411 67.938 9.6077C68.0068 9.66155 68.074 9.71642 68.1413 9.77232C68.2794 9.88771 68.4139 10.0072 68.5447 10.1308C68.7976 10.3698 69.0361 10.6237 69.2585 10.8914C69.2879 10.9273 69.3174 10.9632 69.3464 10.9991C69.3516 11.0057 69.3655 11.0232 69.3785 11.0396C69.3929 11.058 69.41 11.0806 69.4172 11.0898C69.4452 11.1268 69.4726 11.1642 69.5 11.2016C69.606 11.3473 69.7074 11.496 69.8041 11.6478C69.9919 11.9432 70.162 12.2499 70.312 12.5653C70.3498 12.6448 70.3865 12.7243 70.4217 12.8048C70.4227 12.8069 70.4238 12.8089 70.4243 12.8115C70.4424 12.8566 70.461 12.9007 70.4791 12.9458C70.5443 13.1105 70.6042 13.2771 70.6586 13.4453C70.7692 13.7854 70.8577 14.1326 70.9244 14.4839C70.9415 14.5726 70.9565 14.6618 70.971 14.7511C70.9777 14.7931 70.9829 14.8352 70.9896 14.8767C70.9544 14.6639 70.987 14.8588 70.9927 14.9065C71.0144 15.0885 71.0299 15.2716 71.0397 15.4547C71.0599 15.8311 71.0558 16.2091 71.0268 16.585C71.0201 16.6701 71.0123 16.7553 71.003 16.8404C70.9984 16.883 70.9937 16.925 70.9885 16.9676C70.9875 16.9773 70.986 16.9871 70.9849 16.9973C70.957 17.1758 70.927 17.3538 70.8898 17.5307C70.8148 17.8856 70.7165 18.2354 70.597 18.5774C70.5696 18.6554 70.5412 18.7328 70.5117 18.8098C70.4967 18.8482 70.4817 18.8867 70.4667 18.9246C70.4589 18.9436 70.4212 19.0339 70.417 19.0446C70.4134 19.0534 70.4098 19.0611 70.4082 19.0646C70.3891 19.1077 70.37 19.1503 70.3503 19.1929C70.3136 19.2723 70.2753 19.3513 70.236 19.4298C70.0767 19.7472 69.8977 20.055 69.7002 20.3504C69.6034 20.495 69.5021 20.637 69.3971 20.7755C69.3935 20.7806 69.3893 20.7858 69.3852 20.7909C69.3614 20.8206 69.3381 20.8499 69.3143 20.8796C69.2595 20.9468 69.2036 21.0135 69.1467 21.0796C68.9155 21.3468 68.6673 21.6002 68.4051 21.8371C68.2758 21.954 68.1433 22.0669 68.0073 22.1756C67.9794 22.1982 67.9509 22.2202 67.9225 22.2428C67.9158 22.2479 67.9091 22.253 67.9028 22.2576C67.8284 22.3135 67.7528 22.3679 67.6763 22.4212C67.3892 22.6218 67.0898 22.8049 66.78 22.9695L66.7794 22.969Z"/>
</mask>
<path d="M70.9389 20.7868C71.769 19.4642 72.2381 17.9359 72.3214 16.3824C72.4057 14.807 72.0638 13.2274 71.3651 11.8129C70.6906 10.4472 69.6598 9.27947 68.4216 8.38917C67.1539 7.47732 65.6633 6.93267 64.1153 6.73625C63.7465 6.68958 63.3746 6.66702 63.0028 6.6665C60.7989 6.67112 58.6742 7.4527 56.985 8.85073C55.3733 10.1847 54.2339 12.0991 53.845 14.1454C53.6438 15.206 53.6717 16.2681 53.6717 17.3399V21.593C53.6717 22.5582 53.6619 23.5239 53.6717 24.4885C53.6717 24.5039 53.6717 24.5193 53.6717 24.5347C53.6717 24.8783 53.9655 25.1701 54.3125 25.1701H61.719C62.2093 25.1701 62.7002 25.1783 63.1905 25.1681C64.7649 25.1347 66.3248 24.7065 67.6866 23.9213C69.0071 23.1603 70.1315 22.0715 70.9384 20.7863L70.9389 20.7868ZM66.7794 22.969C66.6238 23.0515 66.466 23.1295 66.3057 23.2028C66.2628 23.2223 66.2198 23.2418 66.1764 23.2603C66.1702 23.2628 66.1572 23.2685 66.1428 23.2746C66.1195 23.2839 66.0812 23.2998 66.0678 23.3054C66.0181 23.3249 65.9685 23.3444 65.9188 23.3628C65.5842 23.489 65.2413 23.5946 64.8932 23.6782C64.7111 23.7223 64.5275 23.7603 64.3434 23.7921C64.2596 23.8064 64.1753 23.8193 64.091 23.8321C64.0387 23.8388 63.986 23.8449 63.9337 23.85C63.3348 23.9131 62.7317 23.8988 62.1307 23.8988H54.9549V17.8748C54.9549 17.0045 54.9135 16.1199 54.9802 15.2511C54.9895 15.1295 55.0014 15.008 55.0159 14.887C55.018 14.8716 55.0196 14.8557 55.0216 14.8403C55.0216 14.8403 55.0216 14.8403 55.0216 14.8398C55.0325 14.768 55.0433 14.6967 55.0558 14.6249C55.0987 14.3772 55.152 14.131 55.2166 13.8879C55.2802 13.6474 55.3547 13.41 55.4395 13.1761C55.4793 13.0653 55.5218 12.9556 55.5668 12.8469C55.5637 12.854 55.5605 12.8607 55.5564 12.8689C55.5662 12.8479 55.575 12.8258 55.5843 12.8043C55.6128 12.7397 55.6418 12.6761 55.6712 12.6125C55.8786 12.1694 56.1243 11.7442 56.4046 11.3427C56.4703 11.2483 56.5381 11.155 56.6079 11.0637C56.6033 11.0693 56.6002 11.0729 56.5945 11.0796C56.6131 11.0575 56.6307 11.0339 56.6488 11.0114C56.6886 10.9616 56.7289 10.9124 56.7698 10.8632C56.9296 10.6724 57.0982 10.4883 57.2741 10.3113C57.4458 10.139 57.6253 9.97336 57.811 9.81591C57.8963 9.7436 57.9832 9.67385 58.0711 9.60462C58.0634 9.60975 58.0577 9.61436 58.0484 9.62103C58.0613 9.6118 58.0737 9.60205 58.0861 9.59282C58.0892 9.59026 58.0918 9.58821 58.0949 9.58564C58.1032 9.57898 58.1135 9.5718 58.1218 9.56616C58.1254 9.56359 58.1285 9.56103 58.1321 9.55846C58.188 9.51692 58.2449 9.47589 58.3018 9.43589C58.7031 9.15331 59.1288 8.90458 59.5726 8.6938C59.6745 8.64508 59.7779 8.59943 59.8819 8.5543C59.9005 8.54661 59.9196 8.53892 59.9383 8.53174C60.0045 8.50558 60.0707 8.47994 60.1374 8.45532C60.3722 8.36865 60.6101 8.29224 60.8517 8.22608C61.0958 8.15941 61.3425 8.103 61.5913 8.05735C61.7108 8.0353 61.8323 8.02248 61.9518 7.9994C61.7376 8.04043 61.9445 8.00094 61.9999 7.99427C62.0733 7.98607 62.1468 7.97837 62.2202 7.97222C62.4804 7.94914 62.7416 7.93837 63.0028 7.93786C63.3726 7.93888 63.7408 7.9635 64.108 8.00761C64.1142 8.00863 64.1205 8.00914 64.1267 8.01017C64.1691 8.01632 64.211 8.02299 64.2529 8.02966C64.3485 8.04504 64.4442 8.06248 64.5394 8.08146C64.7168 8.11633 64.8927 8.15684 65.0675 8.203C65.4187 8.29531 65.7636 8.40968 66.1004 8.54558C66.1086 8.54917 66.1174 8.55225 66.1262 8.55584C66.1536 8.56764 66.181 8.57943 66.2085 8.59123C66.2948 8.62918 66.3802 8.66867 66.465 8.70918C66.6238 8.7856 66.78 8.86663 66.9336 8.95227C67.2444 9.12562 67.5444 9.31794 67.8315 9.5282C67.862 9.55077 67.8925 9.57334 67.9225 9.5959C67.9277 9.6 67.9328 9.60411 67.938 9.6077C68.0068 9.66155 68.074 9.71642 68.1413 9.77232C68.2794 9.88771 68.4139 10.0072 68.5447 10.1308C68.7976 10.3698 69.0361 10.6237 69.2585 10.8914C69.2879 10.9273 69.3174 10.9632 69.3464 10.9991C69.3516 11.0057 69.3655 11.0232 69.3785 11.0396C69.3929 11.058 69.41 11.0806 69.4172 11.0898C69.4452 11.1268 69.4726 11.1642 69.5 11.2016C69.606 11.3473 69.7074 11.496 69.8041 11.6478C69.9919 11.9432 70.162 12.2499 70.312 12.5653C70.3498 12.6448 70.3865 12.7243 70.4217 12.8048C70.4227 12.8069 70.4238 12.8089 70.4243 12.8115C70.4424 12.8566 70.461 12.9007 70.4791 12.9458C70.5443 13.1105 70.6042 13.2771 70.6586 13.4453C70.7692 13.7854 70.8577 14.1326 70.9244 14.4839C70.9415 14.5726 70.9565 14.6618 70.971 14.7511C70.9777 14.7931 70.9829 14.8352 70.9896 14.8767C70.9544 14.6639 70.987 14.8588 70.9927 14.9065C71.0144 15.0885 71.0299 15.2716 71.0397 15.4547C71.0599 15.8311 71.0558 16.2091 71.0268 16.585C71.0201 16.6701 71.0123 16.7553 71.003 16.8404C70.9984 16.883 70.9937 16.925 70.9885 16.9676C70.9875 16.9773 70.986 16.9871 70.9849 16.9973C70.957 17.1758 70.927 17.3538 70.8898 17.5307C70.8148 17.8856 70.7165 18.2354 70.597 18.5774C70.5696 18.6554 70.5412 18.7328 70.5117 18.8098C70.4967 18.8482 70.4817 18.8867 70.4667 18.9246C70.4589 18.9436 70.4212 19.0339 70.417 19.0446C70.4134 19.0534 70.4098 19.0611 70.4082 19.0646C70.3891 19.1077 70.37 19.1503 70.3503 19.1929C70.3136 19.2723 70.2753 19.3513 70.236 19.4298C70.0767 19.7472 69.8977 20.055 69.7002 20.3504C69.6034 20.495 69.5021 20.637 69.3971 20.7755C69.3935 20.7806 69.3893 20.7858 69.3852 20.7909C69.3614 20.8206 69.3381 20.8499 69.3143 20.8796C69.2595 20.9468 69.2036 21.0135 69.1467 21.0796C68.9155 21.3468 68.6673 21.6002 68.4051 21.8371C68.2758 21.954 68.1433 22.0669 68.0073 22.1756C67.9794 22.1982 67.9509 22.2202 67.9225 22.2428C67.9158 22.2479 67.9091 22.253 67.9028 22.2576C67.8284 22.3135 67.7528 22.3679 67.6763 22.4212C67.3892 22.6218 67.0898 22.8049 66.78 22.9695L66.7794 22.969Z" fill="#AFB9CA"/>
<path d="M70.9389 20.7868C71.769 19.4642 72.2381 17.9359 72.3214 16.3824C72.4057 14.807 72.0638 13.2274 71.3651 11.8129C70.6906 10.4472 69.6598 9.27947 68.4216 8.38917C67.1539 7.47732 65.6633 6.93267 64.1153 6.73625C63.7465 6.68958 63.3746 6.66702 63.0028 6.6665C60.7989 6.67112 58.6742 7.4527 56.985 8.85073C55.3733 10.1847 54.2339 12.0991 53.845 14.1454C53.6438 15.206 53.6717 16.2681 53.6717 17.3399V21.593C53.6717 22.5582 53.6619 23.5239 53.6717 24.4885C53.6717 24.5039 53.6717 24.5193 53.6717 24.5347C53.6717 24.8783 53.9655 25.1701 54.3125 25.1701H61.719C62.2093 25.1701 62.7002 25.1783 63.1905 25.1681C64.7649 25.1347 66.3248 24.7065 67.6866 23.9213C69.0071 23.1603 70.1315 22.0715 70.9384 20.7863L70.9389 20.7868ZM66.7794 22.969C66.6238 23.0515 66.466 23.1295 66.3057 23.2028C66.2628 23.2223 66.2198 23.2418 66.1764 23.2603C66.1702 23.2628 66.1572 23.2685 66.1428 23.2746C66.1195 23.2839 66.0812 23.2998 66.0678 23.3054C66.0181 23.3249 65.9685 23.3444 65.9188 23.3628C65.5842 23.489 65.2413 23.5946 64.8932 23.6782C64.7111 23.7223 64.5275 23.7603 64.3434 23.7921C64.2596 23.8064 64.1753 23.8193 64.091 23.8321C64.0387 23.8388 63.986 23.8449 63.9337 23.85C63.3348 23.9131 62.7317 23.8988 62.1307 23.8988H54.9549V17.8748C54.9549 17.0045 54.9135 16.1199 54.9802 15.2511C54.9895 15.1295 55.0014 15.008 55.0159 14.887C55.018 14.8716 55.0196 14.8557 55.0216 14.8403C55.0216 14.8403 55.0216 14.8403 55.0216 14.8398C55.0325 14.768 55.0433 14.6967 55.0558 14.6249C55.0987 14.3772 55.152 14.131 55.2166 13.8879C55.2802 13.6474 55.3547 13.41 55.4395 13.1761C55.4793 13.0653 55.5218 12.9556 55.5668 12.8469C55.5637 12.854 55.5605 12.8607 55.5564 12.8689C55.5662 12.8479 55.575 12.8258 55.5843 12.8043C55.6128 12.7397 55.6418 12.6761 55.6712 12.6125C55.8786 12.1694 56.1243 11.7442 56.4046 11.3427C56.4703 11.2483 56.5381 11.155 56.6079 11.0637C56.6033 11.0693 56.6002 11.0729 56.5945 11.0796C56.6131 11.0575 56.6307 11.0339 56.6488 11.0114C56.6886 10.9616 56.7289 10.9124 56.7698 10.8632C56.9296 10.6724 57.0982 10.4883 57.2741 10.3113C57.4458 10.139 57.6253 9.97336 57.811 9.81591C57.8963 9.7436 57.9832 9.67385 58.0711 9.60462C58.0634 9.60975 58.0577 9.61436 58.0484 9.62103C58.0613 9.6118 58.0737 9.60205 58.0861 9.59282C58.0892 9.59026 58.0918 9.58821 58.0949 9.58564C58.1032 9.57898 58.1135 9.5718 58.1218 9.56616C58.1254 9.56359 58.1285 9.56103 58.1321 9.55846C58.188 9.51692 58.2449 9.47589 58.3018 9.43589C58.7031 9.15331 59.1288 8.90458 59.5726 8.6938C59.6745 8.64508 59.7779 8.59943 59.8819 8.5543C59.9005 8.54661 59.9196 8.53892 59.9383 8.53174C60.0045 8.50558 60.0707 8.47994 60.1374 8.45532C60.3722 8.36865 60.6101 8.29224 60.8517 8.22608C61.0958 8.15941 61.3425 8.103 61.5913 8.05735C61.7108 8.0353 61.8323 8.02248 61.9518 7.9994C61.7376 8.04043 61.9445 8.00094 61.9999 7.99427C62.0733 7.98607 62.1468 7.97837 62.2202 7.97222C62.4804 7.94914 62.7416 7.93837 63.0028 7.93786C63.3726 7.93888 63.7408 7.9635 64.108 8.00761C64.1142 8.00863 64.1205 8.00914 64.1267 8.01017C64.1691 8.01632 64.211 8.02299 64.2529 8.02966C64.3485 8.04504 64.4442 8.06248 64.5394 8.08146C64.7168 8.11633 64.8927 8.15684 65.0675 8.203C65.4187 8.29531 65.7636 8.40968 66.1004 8.54558C66.1086 8.54917 66.1174 8.55225 66.1262 8.55584C66.1536 8.56764 66.181 8.57943 66.2085 8.59123C66.2948 8.62918 66.3802 8.66867 66.465 8.70918C66.6238 8.7856 66.78 8.86663 66.9336 8.95227C67.2444 9.12562 67.5444 9.31794 67.8315 9.5282C67.862 9.55077 67.8925 9.57334 67.9225 9.5959C67.9277 9.6 67.9328 9.60411 67.938 9.6077C68.0068 9.66155 68.074 9.71642 68.1413 9.77232C68.2794 9.88771 68.4139 10.0072 68.5447 10.1308C68.7976 10.3698 69.0361 10.6237 69.2585 10.8914C69.2879 10.9273 69.3174 10.9632 69.3464 10.9991C69.3516 11.0057 69.3655 11.0232 69.3785 11.0396C69.3929 11.058 69.41 11.0806 69.4172 11.0898C69.4452 11.1268 69.4726 11.1642 69.5 11.2016C69.606 11.3473 69.7074 11.496 69.8041 11.6478C69.9919 11.9432 70.162 12.2499 70.312 12.5653C70.3498 12.6448 70.3865 12.7243 70.4217 12.8048C70.4227 12.8069 70.4238 12.8089 70.4243 12.8115C70.4424 12.8566 70.461 12.9007 70.4791 12.9458C70.5443 13.1105 70.6042 13.2771 70.6586 13.4453C70.7692 13.7854 70.8577 14.1326 70.9244 14.4839C70.9415 14.5726 70.9565 14.6618 70.971 14.7511C70.9777 14.7931 70.9829 14.8352 70.9896 14.8767C70.9544 14.6639 70.987 14.8588 70.9927 14.9065C71.0144 15.0885 71.0299 15.2716 71.0397 15.4547C71.0599 15.8311 71.0558 16.2091 71.0268 16.585C71.0201 16.6701 71.0123 16.7553 71.003 16.8404C70.9984 16.883 70.9937 16.925 70.9885 16.9676C70.9875 16.9773 70.986 16.9871 70.9849 16.9973C70.957 17.1758 70.927 17.3538 70.8898 17.5307C70.8148 17.8856 70.7165 18.2354 70.597 18.5774C70.5696 18.6554 70.5412 18.7328 70.5117 18.8098C70.4967 18.8482 70.4817 18.8867 70.4667 18.9246C70.4589 18.9436 70.4212 19.0339 70.417 19.0446C70.4134 19.0534 70.4098 19.0611 70.4082 19.0646C70.3891 19.1077 70.37 19.1503 70.3503 19.1929C70.3136 19.2723 70.2753 19.3513 70.236 19.4298C70.0767 19.7472 69.8977 20.055 69.7002 20.3504C69.6034 20.495 69.5021 20.637 69.3971 20.7755C69.3935 20.7806 69.3893 20.7858 69.3852 20.7909C69.3614 20.8206 69.3381 20.8499 69.3143 20.8796C69.2595 20.9468 69.2036 21.0135 69.1467 21.0796C68.9155 21.3468 68.6673 21.6002 68.4051 21.8371C68.2758 21.954 68.1433 22.0669 68.0073 22.1756C67.9794 22.1982 67.9509 22.2202 67.9225 22.2428C67.9158 22.2479 67.9091 22.253 67.9028 22.2576C67.8284 22.3135 67.7528 22.3679 67.6763 22.4212C67.3892 22.6218 67.0898 22.8049 66.78 22.9695L66.7794 22.969Z" stroke="#AFB9CA" stroke-width="0.958849" stroke-linejoin="round" mask="url(#path-3-outside-1_1_85)"/>
<path d="M61.9747 16.1581C61.8397 15.5911 62.1939 15.0229 62.7657 14.8891C63.3376 14.7552 63.9106 15.1064 64.0456 15.6735C64.1806 16.2405 63.8264 16.8087 63.2545 16.9425C62.6826 17.0764 62.1096 16.7252 61.9747 16.1581Z" fill="#AFB9CA"/>
<path d="M66.741 16.8926C66.1982 16.6696 65.9404 16.0525 66.1652 15.5142C66.3901 14.976 67.0124 14.7204 67.5553 14.9433C68.0981 15.1663 68.3559 15.7834 68.1311 16.3216C67.9062 16.8599 67.2839 17.1155 66.741 16.8926Z" fill="#AFB9CA"/>
<path d="M58.8443 16.9731C58.2567 16.9731 57.7804 16.5008 57.7804 15.9182C57.7804 15.3356 58.2567 14.8633 58.8443 14.8633C59.4319 14.8633 59.9082 15.3356 59.9082 15.9182C59.9082 16.5008 59.4319 16.9731 58.8443 16.9731Z" fill="#AFB9CA"/>
<path d="M81.0801 15.9395L80.2129 15.7168L80.6406 11.4688H85.0176V12.4707H81.5605L81.3027 14.791C81.459 14.7012 81.6562 14.6172 81.8945 14.5391C82.1367 14.4609 82.4141 14.4219 82.7266 14.4219C83.1211 14.4219 83.4746 14.4902 83.7871 14.627C84.0996 14.7598 84.3652 14.9512 84.584 15.2012C84.8066 15.4512 84.9766 15.752 85.0938 16.1035C85.2109 16.4551 85.2695 16.8477 85.2695 17.2812C85.2695 17.6914 85.2129 18.0684 85.0996 18.4121C84.9902 18.7559 84.8242 19.0566 84.6016 19.3145C84.3789 19.5684 84.0977 19.7656 83.7578 19.9062C83.4219 20.0469 83.0254 20.1172 82.5684 20.1172C82.2246 20.1172 81.8984 20.0703 81.5898 19.9766C81.2852 19.8789 81.0117 19.7324 80.7695 19.5371C80.5312 19.3379 80.3359 19.0918 80.1836 18.7988C80.0352 18.502 79.9414 18.1543 79.9023 17.7559H80.9336C80.9805 18.0762 81.0742 18.3457 81.2148 18.5645C81.3555 18.7832 81.5391 18.9492 81.7656 19.0625C81.9961 19.1719 82.2637 19.2266 82.5684 19.2266C82.8262 19.2266 83.0547 19.1816 83.2539 19.0918C83.4531 19.002 83.6211 18.873 83.7578 18.7051C83.8945 18.5371 83.998 18.334 84.0684 18.0957C84.1426 17.8574 84.1797 17.5898 84.1797 17.293C84.1797 17.0234 84.1426 16.7734 84.0684 16.543C83.9941 16.3125 83.8828 16.1113 83.7344 15.9395C83.5898 15.7676 83.4121 15.6348 83.2012 15.541C82.9902 15.4434 82.748 15.3945 82.4746 15.3945C82.1113 15.3945 81.8359 15.4434 81.6484 15.541C81.4648 15.6387 81.2754 15.7715 81.0801 15.9395Z" fill="#919EB6"/>
<path d="M102.595 7.18582V7.18502C102.595 6.4619 103.166 5.9165 103.809 5.9165H116.19C116.842 5.9165 117.416 6.47013 117.416 7.18502V24.758L111.248 22.0694C110.452 21.7223 109.547 21.7223 108.751 22.0694L102.584 24.7575L102.595 7.18582Z" stroke="#AFB9CA" stroke-width="2.5"/>
<circle cx="150" cy="16.5" r="1.5" fill="#AFB9CA"/>
<circle cx="154.5" cy="16.5" r="1.5" fill="#AFB9CA"/>
<circle cx="145.5" cy="16.5" r="1.5" fill="#AFB9CA"/>
</svg>
